<svg xmlns="http://www.w3.org/2000/svg" xmlns:xlink="http://www.w3.org/1999/xlink" width="40px" height="40px" viewBox="0 0 40 40" version="1.1">
<g id="surface90567">
<path style=" stroke:none;fill-rule:nonzero;fill:rgb(96.862745%,56.078431%,56.078431%);fill-opacity:1;" d="M 0.914062 12.027344 L 6.941406 6 L 33.058594 6 L 39.085938 12.027344 L 20 33.660156 Z M 0.914062 12.027344 "/>
<path style=" stroke:none;fill-rule:nonzero;fill:rgb(78.039216%,26.27451%,26.27451%);fill-opacity:1;" d="M 32.78125 6.667969 L 38.171875 12.058594 L 20 32.652344 L 1.828125 12.058594 L 7.21875 6.667969 L 32.78125 6.667969 M 33.332031 5.332031 L 6.667969 5.332031 L 0 12 L 20 34.667969 L 40 12 Z M 33.332031 5.332031 "/>
<path style=" stroke:none;fill-rule:nonzero;fill:rgb(96.862745%,56.078431%,56.078431%);fill-opacity:1;" d="M 0.914062 12.027344 L 6.941406 6 L 33.058594 6 L 39.085938 12.027344 L 20 33.660156 Z M 0.914062 12.027344 "/>
<path style=" stroke:none;fill-rule:nonzero;fill:rgb(78.039216%,26.27451%,26.27451%);fill-opacity:1;" d="M 32.78125 6.667969 L 38.171875 12.058594 L 20 32.652344 L 1.828125 12.058594 L 7.21875 6.667969 L 32.78125 6.667969 M 33.332031 5.332031 L 6.667969 5.332031 L 0 12 L 20 34.667969 L 40 12 Z M 33.332031 5.332031 "/>
<path style=" stroke:none;fill-rule:nonzero;fill:rgb(96.862745%,56.078431%,56.078431%);fill-opacity:1;" d="M 0.914062 12.007812 L 6.941406 6 L 33.058594 6 L 39.085938 12.007812 L 20 33.636719 Z M 0.914062 12.007812 "/>
<path style=" stroke:none;fill-rule:nonzero;fill:rgb(78.039216%,26.27451%,26.27451%);fill-opacity:1;" d="M 32.78125 6.667969 L 38.171875 12.039062 L 20 32.628906 L 1.828125 12.039062 L 7.21875 6.667969 L 32.78125 6.667969 M 33.332031 5.332031 L 6.667969 5.332031 L 0 11.980469 L 20 34.644531 L 40 11.980469 Z M 33.332031 5.332031 "/>
<path style=" stroke:none;fill-rule:nonzero;fill:rgb(100%,93.333333%,63.921569%);fill-opacity:1;" d="M 12.140625 23.742188 L 1.828125 12.058594 L 7.21875 6.667969 L 10.6875 6.667969 L 10.683594 6.667969 C 10.683594 6.667969 5.390625 9.777344 5.332031 14.332031 C 5.332031 14.332031 5.09375 16.753906 7.78125 18.132812 C 9.25 18.511719 10.328125 18.863281 18.558594 19.414062 C 25.609375 19.890625 27.042969 20.285156 27.332031 20.542969 C 27.625 20.796875 31.292969 24 19.582031 24 C 18.757812 22.835938 17.457031 21.332031 15.542969 21.332031 C 13.113281 21.332031 11.722656 22.242188 12.140625 23.742188 Z M 32.570312 18.402344 L 38.171875 12.054688 L 34.667969 8.550781 L 34.667969 12 L 28 12 C 27.914062 9.140625 24.40625 6.667969 19.40625 6.667969 C 14.410156 6.582031 12.75 8.832031 12.75 8.832031 C 12.75 8.832031 8.480469 13.332031 20.761719 13.332031 C 33.046875 13.332031 32.707031 18.167969 32.707031 18.167969 Z M 28.554688 8.480469 C 28.945312 8.09375 29.332031 6.863281 29.390625 6.667969 L 26.882812 6.667969 C 27.050781 6.847656 28.035156 7.664062 28.554688 8.480469 Z M 25.894531 25.96875 C 25.820312 26.054688 23.433594 26.683594 19.957031 26.667969 C 18.28125 26.65625 17.738281 26.800781 15.707031 26.292969 C 15.707031 26.292969 14.609375 26.125 13.269531 25.027344 L 20 32.652344 Z M 25.894531 25.96875 "/>
<path style=" stroke:none;fill-rule:nonzero;fill:rgb(78.039216%,26.27451%,26.27451%);fill-opacity:1;" d="M 33.332031 7.199219 L 33.332031 10.667969 L 29.125 10.667969 C 29.058594 10.449219 28.980469 10.234375 28.886719 10.027344 L 29.496094 9.425781 C 30.027344 8.894531 30.425781 7.84375 30.664062 7.054688 L 30.789062 6.644531 L 7.21875 6.644531 L 1.828125 12.035156 L 1.835938 12.046875 L 7.21875 6.667969 L 10.6875 6.667969 L 10.683594 6.667969 C 10.683594 6.667969 5.332031 9.734375 5.332031 14.460938 C 5.332031 14.460938 5.21875 15.746094 6.191406 16.980469 L 6.398438 17.214844 C 6.742188 17.589844 7.179688 17.953125 7.777344 18.261719 C 9.25 18.644531 10.328125 18.863281 18.558594 19.414062 C 25.609375 19.890625 26.875 20.382812 27.121094 20.488281 C 27.5 20.644531 31.292969 24 19.582031 24 C 18.757812 22.835938 17.457031 21.332031 15.542969 21.332031 C 13.128906 21.332031 11.742188 22.234375 12.136719 23.71875 L 13.328125 25.066406 C 14.636719 26.125 15.710938 26.292969 15.710938 26.292969 C 17.035156 26.625 17.722656 26.679688 18.507812 26.679688 C 18.890625 26.679688 19.296875 26.667969 19.808594 26.667969 C 19.855469 26.667969 19.90625 26.667969 19.960938 26.667969 C 20.007812 26.667969 20.058594 26.667969 20.105469 26.667969 C 23.402344 26.667969 25.671875 26.09375 25.867188 25.980469 L 29.265625 22.132812 C 29.652344 20.273438 27.808594 19.296875 27.808594 19.296875 C 27.453125 19.121094 25.695312 18.558594 18.652344 18.085938 C 10.890625 17.566406 9.03125 17.234375 8.300781 17.003906 C 6.871094 16.574219 6.652344 14.714844 6.664062 14.554688 L 6.667969 14.523438 L 6.667969 14.460938 C 6.667969 9.996094 12.050781 7.625 12.050781 7.625 C 11.902344 7.769531 11.796875 7.890625 11.734375 7.964844 C 11.113281 8.652344 10.292969 10.136719 10.933594 11.625 C 11.824219 13.703125 14.945312 14.667969 20.761719 14.667969 C 27.550781 14.667969 29.976562 16.179688 30.820312 17.085938 C 31.3125 17.617188 31.378906 18.070312 31.378906 18.074219 C 31.378906 18.074219 31.585938 18.824219 31.269531 19.859375 L 36.777344 13.617188 L 32.710938 18.167969 C 32.710938 18.167969 33.046875 13.332031 20.765625 13.332031 C 8.480469 13.332031 12.75 8.832031 12.75 8.832031 C 12.75 8.832031 14.347656 6.664062 19.132812 6.664062 C 19.222656 6.664062 19.316406 6.664062 19.40625 6.667969 C 24.40625 6.667969 27.914062 9.140625 28 12 L 34.667969 12 L 34.667969 8.550781 L 38.160156 12.046875 L 38.171875 12.035156 Z M 18.507812 25.34375 C 17.78125 25.34375 17.179688 25.308594 16.035156 25 C 13.851562 24.328125 13.425781 23.386719 13.425781 23.386719 C 13.378906 23.226562 13.410156 23.1875 13.421875 23.171875 C 13.554688 23 14.167969 22.667969 15.542969 22.667969 C 16.550781 22.667969 17.460938 23.316406 18.496094 24.773438 L 18.894531 25.332031 C 18.894531 25.332031 18.679688 25.34375 18.507812 25.34375 Z M 26.882812 6.667969 L 29.390625 6.667969 C 29.332031 6.863281 28.945312 8.089844 28.554688 8.480469 C 28.035156 7.664062 27.050781 6.847656 26.882812 6.667969 Z M 33.488281 19.363281 C 33.535156 19.316406 33.570312 19.285156 33.570312 19.285156 L 39.171875 12.9375 L 40 12 L 39.992188 11.992188 Z M 33.488281 19.363281 "/>
<path style=" stroke:none;fill-rule:nonzero;fill:rgb(78.039216%,26.27451%,26.27451%);fill-opacity:1;" d="M 20 34.644531 L 0.0078125 11.992188 L 0 12 L 0.828125 12.9375 L 11.140625 24.625 L 14.96875 28.964844 L 19 33.535156 L 20 34.667969 L 21 33.535156 L 26.894531 26.851562 L 26.90625 26.816406 Z M 20 34.644531 "/>
</g>
</svg>
